<?xml version="1.0" encoding="UTF-8" standalone="no"?>
<!-- Created with Inkscape (http://www.inkscape.org/) -->

<svg
   width="512mm"
   height="512mm"
   viewBox="0 0 512 512"
   version="1.1"
   id="svg1"
   xml:space="preserve"
   inkscape:version="1.4 (86a8ad7, 2024-10-11)"
   sodipodi:docname="logo.svg"
   inkscape:export-filename="logo.png"
   inkscape:export-xdpi="96"
   inkscape:export-ydpi="96"
   xmlns:inkscape="http://www.inkscape.org/namespaces/inkscape"
   xmlns:sodipodi="http://sodipodi.sourceforge.net/DTD/sodipodi-0.dtd"
   xmlns:xlink="http://www.w3.org/1999/xlink"
   xmlns="http://www.w3.org/2000/svg"
   xmlns:svg="http://www.w3.org/2000/svg"><sodipodi:namedview
     id="namedview1"
     pagecolor="#ffffff"
     bordercolor="#000000"
     borderopacity="0.25"
     inkscape:showpageshadow="2"
     inkscape:pageopacity="0.0"
     inkscape:pagecheckerboard="0"
     inkscape:deskcolor="#d1d1d1"
     inkscape:document-units="px"
     showguides="false"
     inkscape:lockguides="false"
     showgrid="false"
     inkscape:zoom="0.34835028"
     inkscape:cx="819.57735"
     inkscape:cy="951.62834"
     inkscape:window-width="1920"
     inkscape:window-height="1009"
     inkscape:window-x="1358"
     inkscape:window-y="-8"
     inkscape:window-maximized="1"
     inkscape:current-layer="layer1"><inkscape:grid
       id="grid8"
       units="px"
       originx="0"
       originy="0"
       spacingx="0.26458333"
       spacingy="0.26458333"
       empcolor="#0099e5"
       empopacity="0.30196078"
       color="#0099e5"
       opacity="0.14901961"
       empspacing="5"
       enabled="true"
       visible="false" /></sodipodi:namedview><defs
     id="defs1"><linearGradient
       id="linearGradient4"
       inkscape:collect="always"><stop
         style="stop-color:#e6b44a;stop-opacity:1;"
         offset="0.5"
         id="stop4" /><stop
         style="stop-color:#e6b44a;stop-opacity:0;"
         offset="0.70888889"
         id="stop3" /></linearGradient><linearGradient
       id="linearGradient88"
       inkscape:collect="always"><stop
         style="stop-color:#e6b44a;stop-opacity:0;"
         offset="0.29111111"
         id="stop89" /><stop
         style="stop-color:#e6b44a;stop-opacity:1;"
         offset="0.5"
         id="stop88" /></linearGradient><linearGradient
       id="linearGradient78"
       inkscape:collect="always"><stop
         style="stop-color:#e6b44a;stop-opacity:1;"
         offset="0"
         id="stop78" /><stop
         style="stop-color:#e6b44a;stop-opacity:0;"
         offset="1"
         id="stop79" /></linearGradient><linearGradient
       id="linearGradient76"
       inkscape:collect="always"><stop
         style="stop-color:#a26f1d;stop-opacity:1;"
         offset="0"
         id="stop76" /><stop
         style="stop-color:#f5e0a0;stop-opacity:0;"
         offset="0"
         id="stop77" /></linearGradient><linearGradient
       id="linearGradient52"
       inkscape:collect="always"><stop
         style="stop-color:#e6b44a;stop-opacity:1;"
         offset="0"
         id="stop52" /><stop
         style="stop-color:#e6b44a;stop-opacity:0;"
         offset="1"
         id="stop53" /></linearGradient><inkscape:path-effect
       effect="fillet_chamfer"
       id="path-effect6"
       is_visible="true"
       lpeversion="1"
       nodesatellites_param="F,0,0,1,0,0,0,1 @ F,0,0,1,0,0,0,1 @ F,0,0,1,0,0,0,1 @ F,0,0,1,0,0,0,1"
       radius="0"
       unit="px"
       method="auto"
       mode="F"
       chamfer_steps="1"
       flexible="false"
       use_knot_distance="true"
       apply_no_radius="true"
       apply_with_radius="true"
       only_selected="false"
       hide_knots="false" /><inkscape:path-effect
       effect="fillet_chamfer"
       id="path-effect5"
       is_visible="true"
       lpeversion="1"
       nodesatellites_param="F,0,0,1,0,0,0,1 @ F,0,0,1,0,0,0,1 @ F,0,0,1,0,0,0,1 @ F,0,0,1,0,0,0,1"
       radius="0"
       unit="px"
       method="auto"
       mode="F"
       chamfer_steps="1"
       flexible="false"
       use_knot_distance="true"
       apply_no_radius="true"
       apply_with_radius="true"
       only_selected="false"
       hide_knots="false" /><radialGradient
       inkscape:collect="always"
       xlink:href="#linearGradient52"
       id="radialGradient55"
       cx="232.49113"
       cy="130.31277"
       fx="232.49113"
       fy="130.31277"
       r="26.268839"
       gradientTransform="matrix(1,0,0,1.1114754,0,-14.526671)"
       gradientUnits="userSpaceOnUse" /><radialGradient
       inkscape:collect="always"
       xlink:href="#linearGradient52"
       id="radialGradient56"
       cx="249.73392"
       cy="170.55984"
       fx="249.73392"
       fy="170.55984"
       r="19.400185"
       gradientTransform="matrix(1,0,0,1.5738069,0,-97.868416)"
       gradientUnits="userSpaceOnUse" /><filter
       style="color-interpolation-filters:sRGB;"
       inkscape:label="Drop Shadow"
       id="filter57"
       x="-0.1370445"
       y="-0.12329964"
       width="1.3597418"
       height="1.3236616"><feFlood
         result="flood"
         in="SourceGraphic"
         flood-opacity="0.498039"
         flood-color="rgb(0,0,0)"
         id="feFlood56" /><feGaussianBlur
         result="blur"
         in="SourceGraphic"
         stdDeviation="1.500000"
         id="feGaussianBlur56" /><feOffset
         result="offset"
         in="blur"
         dx="1.500000"
         dy="1.500000"
         id="feOffset56" /><feComposite
         result="comp1"
         operator="in"
         in="flood"
         in2="offset"
         id="feComposite56" /><feComposite
         result="fbSourceGraphic"
         operator="over"
         in="SourceGraphic"
         in2="comp1"
         id="feComposite57" /><feColorMatrix
         result="fbSourceGraphicAlpha"
         in="fbSourceGraphic"
         values="0 0 0 -1 0 0 0 0 -1 0 0 0 0 -1 0 0 0 0 1 0"
         id="feColorMatrix59" /><feFlood
         id="feFlood59"
         result="flood"
         in="fbSourceGraphic"
         flood-opacity="0.498039"
         flood-color="rgb(0,0,0)" /><feGaussianBlur
         id="feGaussianBlur59"
         result="blur"
         in="fbSourceGraphic"
         stdDeviation="1.500000" /><feOffset
         id="feOffset59"
         result="offset"
         in="blur"
         dx="3.000000"
         dy="3.000000" /><feComposite
         id="feComposite60"
         result="comp1"
         operator="in"
         in="flood"
         in2="offset" /><feComposite
         id="feComposite61"
         result="comp2"
         operator="over"
         in="fbSourceGraphic"
         in2="comp1" /></filter><filter
       style="color-interpolation-filters:sRGB;"
       inkscape:label="Drop Shadow"
       id="filter59"
       x="-0.18556529"
       y="-0.11790854"
       width="1.4871089"
       height="1.3095099"><feFlood
         result="flood"
         in="SourceGraphic"
         flood-opacity="0.498039"
         flood-color="rgb(0,0,0)"
         id="feFlood57" /><feGaussianBlur
         result="blur"
         in="SourceGraphic"
         stdDeviation="1.500000"
         id="feGaussianBlur57" /><feOffset
         result="offset"
         in="blur"
         dx="1.500000"
         dy="1.500000"
         id="feOffset57" /><feComposite
         result="comp1"
         operator="in"
         in="flood"
         in2="offset"
         id="feComposite58" /><feComposite
         result="fbSourceGraphic"
         operator="over"
         in="SourceGraphic"
         in2="comp1"
         id="feComposite59" /><feColorMatrix
         result="fbSourceGraphicAlpha"
         in="fbSourceGraphic"
         values="0 0 0 -1 0 0 0 0 -1 0 0 0 0 -1 0 0 0 0 1 0"
         id="feColorMatrix61" /><feFlood
         id="feFlood61"
         result="flood"
         in="fbSourceGraphic"
         flood-opacity="0.498039"
         flood-color="rgb(0,0,0)" /><feGaussianBlur
         id="feGaussianBlur61"
         result="blur"
         in="fbSourceGraphic"
         stdDeviation="1.500000" /><feOffset
         id="feOffset61"
         result="offset"
         in="blur"
         dx="3.000000"
         dy="3.000000" /><feComposite
         id="feComposite62"
         result="comp1"
         operator="in"
         in="flood"
         in2="offset" /><feComposite
         id="feComposite63"
         result="comp2"
         operator="over"
         in="fbSourceGraphic"
         in2="comp1" /></filter><filter
       style="color-interpolation-filters:sRGB;"
       inkscape:label="Drop Shadow"
       id="filter65"
       x="-0.040416981"
       y="-0.065751984"
       width="1.1369687"
       height="1.2228262"><feFlood
         result="flood"
         in="SourceGraphic"
         flood-opacity="0.498039"
         flood-color="rgb(0,0,0)"
         id="feFlood63" /><feGaussianBlur
         result="blur"
         in="SourceGraphic"
         stdDeviation="1.500000"
         id="feGaussianBlur63" /><feOffset
         result="offset"
         in="blur"
         dx="5.000000"
         dy="5.000000"
         id="feOffset63" /><feComposite
         result="comp1"
         operator="in"
         in="flood"
         in2="offset"
         id="feComposite64" /><feComposite
         result="comp2"
         operator="over"
         in="SourceGraphic"
         in2="comp1"
         id="feComposite65" /></filter><linearGradient
       inkscape:collect="always"
       xlink:href="#linearGradient76"
       id="linearGradient81"
       gradientUnits="userSpaceOnUse"
       x1="157.09936"
       y1="232.01446"
       x2="382.11943"
       y2="232.01446"
       gradientTransform="translate(-2.148282,-40.817359)" /><linearGradient
       inkscape:collect="always"
       xlink:href="#linearGradient78"
       id="linearGradient82"
       gradientUnits="userSpaceOnUse"
       x1="157.09936"
       y1="232.01446"
       x2="382.11943"
       y2="232.01446"
       gradientTransform="translate(-2.148282,-40.817359)" /><linearGradient
       inkscape:collect="always"
       xlink:href="#linearGradient88"
       id="linearGradient89"
       x1="386.67722"
       y1="370.54968"
       x2="477.8211"
       y2="370.54968"
       gradientUnits="userSpaceOnUse"
       gradientTransform="translate(11.262671,-0.2224619)" /><linearGradient
       inkscape:collect="always"
       xlink:href="#linearGradient4"
       id="linearGradient3"
       gradientUnits="userSpaceOnUse"
       gradientTransform="translate(-362.34033,0.08480212)"
       x1="386.67722"
       y1="370.54968"
       x2="477.8211"
       y2="370.54968" /></defs><g
     inkscape:label="Camada 1"
     inkscape:groupmode="layer"
     id="layer1"><g
       id="g9"
       transform="matrix(0.43563549,0,0,0.43510446,231.91059,226.14178)"
       style="fill:#e6b44a;fill-opacity:1;filter:url(#filter65)"><path
         id="path1"
         d="m 49.938203,11.171715 c -3.5586,-0.07031 -5.40718,4.503905 -2.84478,6.906205 -1.3008,-0.125 -2.49171,0.854973 -2.48391,2.187003 0.03125,0.80859 -0.159444,2.110213 0.344466,2.782013 -6.0156,0.46875 -8.332352,2.270061 -13.312352,3.813061 -3.0781,0.95312 -6.595195,0.95256 -9.110795,0.74944 -1.7188,-3.9531 -7.811797,-2.668421 -7.796197,1.671479 0,1.4219 0.734766,2.671949 1.844186,3.390649 L 8.1405567,57.686971 H 6.2495044 c -0.54688,-0.0078 -0.9514233,0.606605 -0.7170533,1.110535 l 1.8113798,4.062874 c 0.82812,1.8594 2.8599911,3.06135 5.1880911,3.06135 h 12.592956 c 2.3125,0 4.359992,-1.20195 5.188092,-3.06135 l 1.797319,-4.062874 c 0.25,-0.50781 -0.156123,-1.118335 -0.702993,-1.110535 H 29.49984 l -2.570612,-7.62158 c -0.08569,-0.193196 -0.156369,-0.39789 -0.208555,-0.615449 L 21.499775,33.968324 c 8.655857,1.132141 16.26822,-3.703223 24.330603,-2.093891 0.148508,0.0035 0.296756,0.0131 0.445229,0.01817 0.0055,1.86e-4 0.01094,-1.89e-4 0.0164,0 0.06303,8.8e-5 0.126778,4.4e-5 0.189808,0 0.06938,0 0.138723,-8.8e-5 0.208555,0 0.08752,1.75e-4 0.175387,-2.64e-4 0.262451,0 0.08072,3.51e-4 0.160646,0.0029 0.241361,0.0045 0.112004,0.0044 0.225433,0.0026 0.337437,0.01135 0.109284,0.0044 0.216437,0.01392 0.32572,0.02271 0.101575,0.0044 0.20351,0.01846 0.304631,0.02725 0.102028,0.0044 0.204945,0.0026 0.306974,0.01135 0.0984,0.0044 0.196856,0.0063 0.295257,0.0091 0.109283,4.4e-5 0.21878,-1.32e-4 0.328063,0 0.118353,-4.4e-5 0.235488,-8.8e-5 0.35384,0 0.126969,1.76e-4 0.254992,0.0017 0.38196,0.0023 0.128329,2.2e-4 0.255975,0.001 0.384303,0.0045 0.118806,0.0044 0.237378,0.01377 0.356184,0.01817 0.128328,0.0052 0.256427,0.0024 0.384303,0.0023 0.102481,0 0.204945,-8.8e-5 0.306974,0 0.101574,4.4e-5 0.203055,8.8e-5 0.30463,0 0.09024,0 0.179696,4.4e-5 0.269481,0 h 0.260107 c 0.08117,-4.4e-5 0.162536,0 0.243705,0 0.08162,-4.4e-5 0.162082,4.4e-5 0.243704,0 0.08434,-4.4e-5 0.168735,3.08e-4 0.253078,0 0.07482,-2.64e-4 0.150137,-10e-7 0.224958,-0.0023 0.04353,0 0.08588,-2.31e-4 0.131225,-0.0091 0.04489,-0.0088 0.08354,-0.02315 0.128882,-0.03634 0.0594,-0.01626 0.120125,-0.03224 0.180435,-0.04542 0.06167,-0.01178 0.123452,-0.02228 0.185122,-0.0045 0.01904,0.0044 0.04248,0.0095 0.05155,0.02271 0.0017,0.0022 0.0031,0.0046 0.0047,0.0068 8.157594,-1.848045 16.07046,3.178733 24.759429,2.030302 l -8.000065,23.718647 h -1.905112 c -0.55078,-0.0078 -0.949094,0.606605 -0.702994,1.110535 l 1.794977,4.062874 c 0.82812,1.8594 2.875591,3.06135 5.188091,3.06135 H 87.47103 c 2.3281,0 4.357648,-1.20195 5.185748,-3.06135 l 1.813723,-4.062874 c 0.10938,-0.25 0.07736,-0.530691 -0.06327,-0.749441 h -0.0023 c -0.24219,-0.57812 -1.751837,-0.302494 -2.544837,-0.361094 L 83.42178,32.687462 c 3.332,-2.1016 1.797321,-7.524318 -2.249579,-7.485318 -1.625,0 -3.064175,0.969843 -3.704775,2.407293 -3.7539,0.53516 -9.460117,-0.426074 -13.202217,-2.234694 -2.7188,-1.0625 -5.139583,-2.015504 -9.342783,-2.343704 0.48438,-0.66797 0.292914,-1.992716 0.328064,-2.766116 0.0078,-1.3281 -1.18311,-2.315903 -2.48391,-2.187003 2.5586,-2.375 0.714563,-6.992205 -2.828377,-6.906205 z m 31.936991,18.359014 c 0.23438,0.09375 0.421775,0.266974 0.562395,0.470104 -0.12109,-0.19922 -0.351455,-0.352914 -0.562395,-0.470104 z M 79.625615,40.3908 V 57.686971 H 73.7978 Z m -62.360204,0.04542 v 17.250751 h -5.811412 z m 3.125978,0 5.811412,17.250751 h -5.811412 z m 62.357861,0.04769 5.797352,17.203059 H 82.74925 Z"
         style="fill:#e6b44a;fill-opacity:1" /></g><rect
       style="display:inline;opacity:1;fill:#420212;fill-opacity:1;fill-rule:nonzero;stroke:none;stroke-width:2.64583;stroke-dasharray:none;stroke-opacity:1"
       id="rect89"
       width="512.68439"
       height="512.68439"
       x="-0.75953239"
       y="0" /><path
       d="m 263.72514,168.06627 q 6.07198,1.29191 9.08643,4.13412 4.17718,3.96185 4.17718,9.68932 0,4.34943 -2.75607,8.35435 -2.75608,3.96186 -7.57921,5.8136 -4.78007,1.80867 -14.64165,1.80867 h -27.56075 v -1.59335 h 2.19625 q 3.66041,0 5.25377,-2.32544 0.99046,-1.50723 0.99046,-6.41649 v -37.72377 q 0,-5.42603 -1.24884,-6.84713 -1.67949,-1.8948 -4.99539,-1.8948 h -2.19625 V 139.472 h 25.23531 q 7.06245,0 11.32575,1.03352 6.45955,1.5503 9.86158,5.51215 3.40203,3.9188 3.40203,9.04337 0,4.3925 -2.66995,7.88066 -2.66995,3.44509 -7.88065,5.12457 z m -22.56536,-2.32544 q 1.59335,0.30145 3.61735,0.47371 2.06705,0.12919 4.52168,0.12919 6.2873,0 9.43094,-1.33498 3.18672,-1.37803 4.8662,-4.17717 1.67948,-2.79914 1.67948,-6.11504 0,-5.12458 -4.17717,-8.74193 -4.17718,-3.61735 -12.18702,-3.61735 -4.30637,0 -7.75146,0.9474 z m 0,27.90526 q 4.99538,1.16272 9.86158,1.16272 7.79452,0 11.88557,-3.48815 4.09105,-3.53123 4.09105,-8.69887 0,-3.40203 -1.85174,-6.54567 -1.85174,-3.14365 -6.02891,-4.95233 -4.17718,-1.80867 -10.33528,-1.80867 -2.66995,0 -4.56475,0.0861 -1.8948,0.0861 -3.05752,0.30144 z"
       id="text37"
       style="font-size:88.1944px;font-family:'Times New Roman';-inkscape-font-specification:'Times New Roman, ';fill:#e6b44a;stroke-width:0.264583;filter:url(#filter57)"
       transform="matrix(1.975426,0,0,1.9121593,-241.40378,-166.02769)"
       aria-label="B" /><path
       d="m 284.21408,171.08618 v 20.19686 h -1.59335 q -0.77515,-5.81359 -2.79914,-9.25869 -1.98093,-3.44509 -5.6844,-5.46908 -3.70348,-2.024 -7.66534,-2.024 -4.47862,0 -7.40695,2.75608 -2.92833,2.71301 -2.92833,6.20117 0,2.66994 1.85174,4.86619 2.66995,3.22978 12.70378,8.61274 8.1821,4.39249 11.15349,6.76099 3.01446,2.32544 4.60782,5.51215 1.63641,3.18671 1.63641,6.67487 0,6.63181 -5.16764,11.45494 -5.12457,4.78006 -13.22054,4.78006 -2.54076,0 -4.78007,-0.38757 -1.33497,-0.21532 -5.55521,-1.55029 -4.17718,-1.37804 -5.29683,-1.37804 -1.0766,0 -1.72255,0.64596 -0.60289,0.64595 -0.90434,2.66994 h -1.59335 v -20.0246 h 1.59335 q 1.11966,6.28729 3.01446,9.43094 1.8948,3.10059 5.77053,5.16764 3.91879,2.06706 8.56967,2.06706 5.38296,0 8.48354,-2.8422 3.14365,-2.84221 3.14365,-6.71794 0,-2.15318 -1.20578,-4.34943 -1.16272,-2.19624 -3.66041,-4.09105 -1.67949,-1.29191 -9.17257,-5.46908 -7.49307,-4.22024 -10.67979,-6.71793 -3.14364,-2.4977 -4.78006,-5.51215 -1.63642,-3.01446 -1.63642,-6.63181 0,-6.2873 4.82313,-10.80898 4.82313,-4.56475 12.27314,-4.56475 4.65088,0 9.86159,2.28237 2.41156,1.0766 3.40203,1.0766 1.11965,0 1.80867,-0.64596 0.73208,-0.68902 1.16272,-2.71301 z"
       id="text38"
       style="font-size:88.1944px;font-family:'Times New Roman';-inkscape-font-specification:'Times New Roman, ';fill:#e6b44a;stroke-width:0.264583;filter:url(#filter59)"
       transform="matrix(1.975426,0,0,1.9121593,-241.40378,-166.02769)"
       aria-label="S" /><path
       id="rect76"
       style="fill:url(#linearGradient81);fill-opacity:1;fill-rule:nonzero;stroke:url(#linearGradient82);stroke-width:2.64583326;stroke-dasharray:none;stroke-opacity:1"
       d="M 155.74501 83.777313 L 155.74501 298.61691 L 379.17736 298.61691 L 379.17736 83.777313 L 155.74501 83.777313 z " /><text
       xml:space="preserve"
       style="font-style:normal;font-variant:normal;font-weight:normal;font-stretch:normal;font-size:21.1667px;font-family:'Times New Roman';-inkscape-font-specification:'Times New Roman, ';text-align:start;writing-mode:lr-tb;direction:ltr;text-anchor:start;opacity:0.5;fill:#000000;fill-opacity:1;fill-rule:nonzero;stroke:#e6b44a;stroke-width:2.64583;stroke-dasharray:none;stroke-opacity:1"
       x="104.05594"
       y="328.11798"
       id="text83"><tspan
         sodipodi:role="line"
         id="tspan83"
         style="stroke-width:2.64583"
         x="104.05594"
         y="328.11798" /></text><path
       id="rect86-9"
       style="display:inline;opacity:0.5;fill:url(#linearGradient89);stroke-width:2.64583"
       d="m 397.93988,368.61829 h 91.14388 v 3.41789 h -91.14388 z" /><path
       id="rect86-9-1"
       style="display:inline;opacity:0.5;fill:url(#linearGradient3);stroke-width:2.64583"
       d="m 24.336879,368.92557 h 91.143881 v 3.41789 H 24.336879 Z" /><path
       style="fill:#e28b20;stroke-width:28.7067"
       d="m 953.06368,977.06455 v -72.1667 l -15.07104,1.81025 c -8.28907,0.99563 -17.7256,1.82147 -20.97007,1.83519 -5.37227,0.0227 -5.96144,1.97976 -6.5979,21.91622 l -0.69888,21.89124 7.38409,-1.41154 c 9.3109,-1.7799 11.61038,1.65707 5.31831,7.94913 -3.63478,3.63478 -8.05197,4.49154 -17.60547,3.41472 -11.94498,-1.34638 -20.33817,-7.20172 -15.19277,-10.59896 1.25879,-0.83109 3.02632,-3.4488 3.92785,-5.8171 1.30563,-3.42988 1.68525,-3.28385 1.86577,0.71766 0.13689,3.03436 2.50015,5.02368 5.96798,5.02368 5.05282,0 5.74135,-1.91379 5.74135,-15.95813 0,-8.77697 -1.03704,-15.3172 -2.30452,-14.53385 -2.77677,1.71615 -2.57522,-20.12796 0.21142,-22.9146 1.0749,-1.0749 3.92509,-0.31879 6.33375,1.68023 3.56464,2.95837 7.81156,2.65164 22.8273,-1.64869 10.14634,-2.90578 18.38828,-5.972 18.31542,-6.81384 -0.0729,-0.84183 0.1695,-2.8224 0.53859,-4.40128 0.3691,-1.57887 0.84502,-4.80837 1.05762,-7.17668 0.21259,-2.36831 2.32424,-4.30601 4.69255,-4.30601 2.3683,0 4.47995,1.9377 4.69254,4.30601 0.2126,2.36831 0.68853,5.59781 1.05762,7.17668 0.3691,1.57888 0.60081,3.59142 0.51492,4.47233 -0.0859,0.8809 8.27516,3.84827 18.58012,6.59415 14.61862,3.89533 19.64057,4.24202 22.85097,1.57764 5.6444,-4.6844 7.9741,-1.47028 8.2982,11.44819 0.2325,9.26426 -0.5351,10.74257 -4.9749,9.58156 -3.6203,-0.94675 -4.7192,-3.04435 -3.5404,-6.75831 1.3313,-4.19455 0.2381,-5.40801 -4.9432,-5.48724 -3.65884,-0.0559 -9.88196,-1.94787 -13.82913,-4.20427 -8.29216,-4.74023 -27.53327,-5.65646 -30.14208,-1.43534 -0.9758,1.57887 0.004,2.87067 2.17637,2.87067 2.55225,0 5.75207,7.64165 9.04029,21.58954 15.31574,64.96593 58.29105,98.8402 125.52835,98.9447 31.2942,0.049 49.3631,-6.4735 67.2317,-24.268 23.2979,-23.20113 27.2898,-50.61902 11.3344,-77.84696 -10.5944,-18.07927 -25.8858,-30.08672 -69.2145,-54.3503 C 993.9935,808.46311 975.44822,794.289 959.09529,759.4242 c -6.2079,-13.23539 -7.46695,-20.03406 -7.46695,-40.32043 0,-20.52008 1.23441,-27.03496 7.76172,-40.96428 10.44686,-22.29368 31.9434,-42.60106 59.14064,-55.86906 21.908,-10.68769 22.37,-10.77397 56.5366,-10.55863 32.7624,0.2065 36.046,0.78907 67.1023,11.90524 38.0147,13.6068 46.4373,12.99749 52.5109,-3.79872 2.245,-6.20845 5.4366,-9.80015 8.7085,-9.80015 4.8351,0 5.1646,4.59277 5.1646,71.97733 0,65.34809 -0.4362,71.89185 -4.7364,71.04918 -3.3241,-0.65141 -6.2992,-7.55526 -9.9777,-23.15377 -8.764,-37.16344 -22.2334,-58.80893 -46.7015,-75.0499 -30.6174,-20.32271 -70.8081,-27.31893 -99.9314,-17.39563 -27.5524,9.38807 -48.01902,35.37232 -48.14909,61.12983 -0.16532,32.73478 23.19799,52.93852 123.37589,106.69111 69.8844,37.49793 89.5854,53.92133 105.5432,87.98431 6.7032,14.30825 7.8191,20.31364 7.6475,41.15367 -0.1631,19.80248 -1.5763,27.37607 -7.4992,40.18943 -13.9291,30.13337 -40.9828,53.83437 -75.7811,66.39007 -13.3342,4.8111 -24.0995,6.2001 -50.0051,6.4522 -30.0521,0.2924 -36.389,-0.6425 -70.66,-10.4245 -44.28508,-12.6403 -56.28225,-13.4761 -62.66354,-4.3655 -2.45783,3.509 -4.46878,8.6762 -4.46878,11.4827 0,3.1888 -2.15335,5.1026 -5.74135,5.1026 -5.58909,0 -5.74135,-1.9138 -5.74135,-72.16675 z"
       id="path2"
       transform="scale(0.26458333)" /><path
       style="fill:#e6b44a;stroke-width:28.7067;fill-opacity:1"
       d="m 953.06368,977.06455 v -72.1667 l -15.07104,1.81025 c -8.28907,0.99563 -17.7256,1.82147 -20.97007,1.83519 -5.37227,0.0227 -5.96144,1.97976 -6.5979,21.91622 l -0.69888,21.89124 7.38409,-1.41154 c 9.3109,-1.7799 11.61038,1.65707 5.31831,7.94913 -3.63478,3.63478 -8.05197,4.49154 -17.60547,3.41472 -14.34732,-1.61717 -18.84073,-6.1654 -13.93274,-14.10279 2.73857,-4.4289 3.48856,-4.60077 4.25305,-0.97454 0.51048,2.42145 3.41704,4.40261 6.45901,4.40261 4.79741,0 5.53086,-2.11623 5.53086,-15.95813 0,-8.77697 -1.03704,-15.3172 -2.30452,-14.53385 -2.77677,1.71615 -2.57522,-20.12796 0.21142,-22.9146 1.0749,-1.0749 3.86393,-0.36955 6.19785,1.56741 3.37934,2.80462 7.63172,2.54038 20.88176,-1.29763 16.1013,-4.66388 22.05167,-9.64093 22.2734,-18.63004 0.0584,-2.36831 2.04391,-4.30601 4.41222,-4.30601 2.3683,0 4.47995,1.9377 4.69254,4.30601 0.2126,2.36831 0.68853,5.59781 1.05762,7.17668 0.3691,1.57888 0.60081,3.59142 0.51492,4.47233 -0.0859,0.8809 8.27516,3.84827 18.58012,6.59415 14.61862,3.89533 19.64057,4.24202 22.85097,1.57764 5.6444,-4.6844 7.9741,-1.47028 8.2982,11.44819 0.2325,9.26426 -0.5351,10.74257 -4.9749,9.58156 -3.6203,-0.94675 -4.7192,-3.04435 -3.5404,-6.75831 1.3313,-4.19455 0.2381,-5.40801 -4.9432,-5.48724 -3.65884,-0.0559 -9.88196,-1.94787 -13.82913,-4.20427 -8.29216,-4.74023 -27.53327,-5.65646 -30.14208,-1.43534 -0.9758,1.57887 0.004,2.87067 2.17637,2.87067 2.55225,0 5.75207,7.64165 9.04029,21.58954 10.2174,43.33994 28.93175,68.79575 62.75055,85.3552 20.6256,10.0993 36.1817,13.4681 62.5864,13.5534 31.8829,0.103 48.9108,-5.9222 67.2604,-23.7994 23.5661,-22.95951 27.6929,-50.64429 11.6338,-78.04705 -10.7362,-18.31986 -25.8825,-30.24079 -69.3512,-54.58271 C 993.9935,808.46311 975.44822,794.289 959.09529,759.4242 c -6.2079,-13.23539 -7.46695,-20.03406 -7.46695,-40.32043 0,-20.52008 1.23441,-27.03496 7.76172,-40.96428 10.44686,-22.29368 31.9434,-42.60106 59.14064,-55.86906 21.8818,-10.67489 22.4109,-10.77416 56.5366,-10.60573 32.592,0.16085 36.064,0.76245 64.4382,11.16521 16.4945,6.04736 33.9238,10.88336 38.7317,10.74666 9.5641,-0.27193 18.8337,-9.19769 18.8337,-18.13508 0,-3.50954 2.0261,-5.42332 5.7414,-5.42332 5.5887,0 5.7413,1.91378 5.7413,71.97733 0,65.34809 -0.4362,71.89185 -4.7364,71.04918 -3.3241,-0.65141 -6.2992,-7.55526 -9.9777,-23.15377 -8.764,-37.16344 -22.2334,-58.80893 -46.7015,-75.0499 -30.6174,-20.32271 -70.8081,-27.31893 -99.9314,-17.39563 -27.5524,9.38807 -48.01902,35.37232 -48.14909,61.12983 -0.16532,32.73478 23.19799,52.93852 123.37589,106.69111 69.8844,37.49793 89.5854,53.92133 105.5432,87.98431 6.7032,14.30825 7.8191,20.31364 7.6475,41.15367 -0.1631,19.80248 -1.5763,27.37607 -7.4992,40.18943 -13.9291,30.13337 -40.9828,53.83437 -75.7811,66.39007 -13.3342,4.8111 -24.0995,6.2001 -50.0051,6.4522 -30.0521,0.2924 -36.389,-0.6425 -70.66,-10.4245 -44.28508,-12.6403 -56.28225,-13.4761 -62.66354,-4.3655 -2.45783,3.509 -4.46878,8.6762 -4.46878,11.4827 0,3.1888 -2.15335,5.1026 -5.74135,5.1026 -5.58909,0 -5.74135,-1.9138 -5.74135,-72.16675 z"
       id="path3"
       transform="scale(0.26458333)" /><path
       style="font-weight:bold;font-size:25.4px;line-height:47.6515px;font-family:'Times New Roman';-inkscape-font-specification:'Times New Roman,  Bold';text-align:center;letter-spacing:7.9375px;word-spacing:0px;text-anchor:middle;white-space:pre;inline-size:333.702;fill:#e6b44a;stroke-width:8.22854"
       d="m 109.29155,332.11277 q 2.39366,0.55811 3.36104,1.35186 1.38906,1.12861 1.38906,2.92695 0,1.89756 -1.52549,3.1378 -1.87275,1.50068 -5.44463,1.50068 h -8.54521 v -0.45889 q 1.16582,0 1.5751,-0.21084 0.42168,-0.22324 0.58291,-0.5705 0.17363,-0.34727 0.17363,-1.71153 v -10.91406 q 0,-1.36426 -0.17363,-1.71152 -0.16123,-0.35967 -0.58291,-0.57051 -0.421682,-0.21084 -1.5751,-0.21084 v -0.45889 h 8.06152 q 2.88975,0 4.09278,0.5209 1.20302,0.5085 1.89756,1.53789 0.69453,1.01699 0.69453,2.17041 0,1.21543 -0.88057,2.17041 -0.88057,0.94258 -3.10059,1.50068 z m -4.51445,-0.33486 q 1.76113,0 2.59209,-0.39687 0.84336,-0.39688 1.28984,-1.11621 0.44649,-0.71934 0.44649,-1.83555 0,-1.11621 -0.44649,-1.82315 -0.43408,-0.71933 -1.25263,-1.0914 -0.81856,-0.37207 -2.6293,-0.35967 z m 0,0.96738 v 5.39502 l -0.0124,0.62012 q 0,0.66973 0.33486,1.01699 0.34727,0.33487 1.01699,0.33487 0.99219,0 1.82315,-0.43409 0.84336,-0.44648 1.28984,-1.27744 0.44649,-0.84336 0.44649,-1.87275 0,-1.17822 -0.54571,-2.1084 -0.5457,-0.94258 -1.50068,-1.31465 -0.95498,-0.37207 -2.85254,-0.35967 z m 25.01553,-7.56543 v 6.8461 h 0.33486 q 1.5999,0 2.31924,-1.00459 0.71934,-1.00459 0.91777,-2.96416 h 0.47129 v 8.80566 h -0.47129 q -0.14883,-1.43867 -0.63252,-2.35644 -0.47129,-0.91778 -1.10381,-1.22783 -0.63251,-0.32247 -1.83554,-0.32247 v 4.7377 q 0,1.38906 0.11162,1.69912 0.12402,0.31006 0.44648,0.5085 0.32246,0.19843 1.0418,0.19843 h 1.00459 q 2.35645,0 3.77031,-1.0914 1.42627,-1.09141 2.04639,-3.32383 h 0.45889 l -0.75655,5.34541 h -14.53554 v -0.45889 h 0.5581 q 0.73174,0 1.17822,-0.26045 0.32247,-0.17363 0.4961,-0.59531 0.13642,-0.29765 0.13642,-1.56269 v -11.06289 q 0,-1.14102 -0.062,-1.40147 -0.12402,-0.43408 -0.45888,-0.66973 -0.47129,-0.34726 -1.28985,-0.34726 h -0.5581 v -0.45889 h 14.07666 v 4.97334 h -0.47129 q -0.35967,-1.82314 -1.017,-2.61689 -0.64492,-0.79375 -1.83554,-1.16582 -0.69453,-0.22325 -2.60449,-0.22325 z m 33.98242,-0.96738 v 4.55166 h -0.44649 q -0.39687,-1.5751 -0.88056,-2.25722 -0.48369,-0.69454 -1.32705,-1.10381 -0.47129,-0.22325 -1.64951,-0.22325 h -1.25264 v 12.97286 q 0,1.28984 0.13642,1.6123 0.14883,0.32246 0.55811,0.57051 0.42168,0.23564 1.14102,0.23564 h 0.5581 v 0.45889 h -8.80566 v -0.45889 h 0.5581 q 0.73174,0 1.17823,-0.26045 0.32246,-0.17363 0.50849,-0.59531 0.13643,-0.29765 0.13643,-1.56269 v -12.97286 h -1.21543 q -1.69912,0 -2.46807,0.71934 -1.079,1.00459 -1.36426,2.86494 h -0.47129 v -4.55166 z m 19.42206,12.03028 h -5.94072 l -0.70693,1.6371 q -0.34727,0.81856 -0.34727,1.35186 0,0.70693 0.57051,1.0418 0.33486,0.19843 1.64951,0.29765 v 0.45889 h -5.59345 v -0.45889 q 0.90537,-0.13642 1.48828,-0.74414 0.58291,-0.62011 1.43867,-2.54248 l 6.01514,-13.41933 h 0.23564 l 6.06475,13.7914 q 0.86816,1.95957 1.42627,2.46807 0.42167,0.38447 1.19062,0.44648 v 0.45889 h -8.13594 v -0.45889 h 0.33487 q 0.97978,0 1.37666,-0.27285 0.27285,-0.19844 0.27285,-0.57051 0,-0.22324 -0.0744,-0.45888 -0.0248,-0.11162 -0.37207,-0.93018 z m -0.42168,-0.91778 -2.50527,-5.79189 -2.57969,5.79189 z m 0.42168,-16.85478 2.51768,4.73769 h -0.95498 l -2.95176,-2.55488 -3.03857,2.48047 h -1.01699 l 2.64169,-4.66328 z m 22.03897,5.74228 8.29717,10.43037 v -7.23056 q 0,-1.51309 -0.43408,-2.04639 -0.59531,-0.71934 -1.99678,-0.69453 v -0.45889 h 5.55625 v 0.45889 q -1.0666,0.13642 -1.43867,0.35967 -0.35967,0.21084 -0.57051,0.70693 -0.19843,0.48369 -0.19843,1.67432 v 14.00224 h -0.42168 L 202.6564,327.41229 v 10.69082 q 0,1.45107 0.65732,1.95957 0.66973,0.50849 1.52549,0.50849 h 0.39687 v 0.45889 h -5.96552 v -0.45889 q 1.38906,-0.0124 1.93476,-0.5705 0.54571,-0.55811 0.54571,-1.89756 v -11.86905 l -0.35967,-0.44648 q -0.5333,-0.66973 -0.94258,-0.88057 -0.40928,-0.21084 -1.17822,-0.23564 v -0.45889 z m 29.25713,16.35869 v 0.45889 h -8.79326 v -0.45889 h 0.5581 q 0.73174,0 1.17823,-0.26045 0.32246,-0.17363 0.49609,-0.59531 0.13643,-0.29765 0.13643,-1.56269 v -11.06289 q 0,-1.28985 -0.13643,-1.61231 -0.13643,-0.32246 -0.55811,-0.5581 -0.40927,-0.24805 -1.11621,-0.24805 h -0.5581 v -0.45889 h 8.79326 v 0.45889 h -0.55811 q -0.73173,0 -1.17822,0.26045 -0.32246,0.17363 -0.50849,0.59531 -0.13643,0.29766 -0.13643,1.5627 v 11.06289 q 0,1.28984 0.13643,1.6123 0.14882,0.32246 0.5581,0.57051 0.42168,0.23564 1.12861,0.23564 z m 19.08721,-4.32841 h -5.94073 l -0.70693,1.6371 q -0.34727,0.81856 -0.34727,1.35186 0,0.70693 0.57051,1.0418 0.33486,0.19843 1.64951,0.29765 v 0.45889 h -5.59345 v -0.45889 q 0.90537,-0.13642 1.48828,-0.74414 0.58291,-0.62011 1.43867,-2.54248 l 6.01514,-13.41933 h 0.23564 l 6.06475,13.7914 q 0.86816,1.95957 1.42627,2.46807 0.42168,0.38447 1.19062,0.44648 v 0.45889 h -8.13594 v -0.45889 h 0.33487 q 0.97978,0 1.37666,-0.27285 0.27285,-0.19844 0.27285,-0.57051 0,-0.22324 -0.0744,-0.45888 -0.0248,-0.11162 -0.37207,-0.93018 z m -0.42168,-0.91778 -2.50528,-5.79189 -2.57969,5.79189 z m 40.95253,-11.49697 0.13642,5.60586 h -0.50849 q -0.35967,-2.1084 -1.77354,-3.38584 -1.40146,-1.28984 -3.03857,-1.28984 -1.26504,0 -2.00918,0.68212 -0.73174,0.66973 -0.73174,1.5503 0,0.5581 0.26045,0.99218 0.35967,0.58291 1.15342,1.15342 0.58291,0.40928 2.69131,1.45108 2.95175,1.45107 3.98115,2.74091 1.01699,1.28985 1.01699,2.95176 0,2.1084 -1.64951,3.63389 -1.63711,1.51308 -4.16719,1.51308 -0.79375,0 -1.50068,-0.16123 -0.70694,-0.16123 -1.77354,-0.60771 -0.59531,-0.24805 -0.97978,-0.24805 -0.32246,0 -0.68213,0.24805 -0.35967,0.24805 -0.58291,0.75654 h -0.45889 v -6.35 h 0.45889 q 0.5457,2.67891 2.096,4.09278 1.56269,1.40146 3.36103,1.40146 1.38906,0 2.20762,-0.75654 0.83095,-0.75655 0.83095,-1.76113 0,-0.59532 -0.32246,-1.15342 -0.31005,-0.55811 -0.95498,-1.0542 -0.64492,-0.5085 -2.28203,-1.31465 -2.29443,-1.12861 -3.29902,-1.92236 -1.00459,-0.79375 -1.55029,-1.77354 -0.53331,-0.97978 -0.53331,-2.15801 0,-2.00918 1.47588,-3.42304 1.47588,-1.41387 3.72071,-1.41387 0.81855,0 1.5875,0.19844 0.58291,0.14882 1.41386,0.5581 0.84336,0.39688 1.17823,0.39688 0.32246,0 0.50849,-0.19844 0.18604,-0.19844 0.34727,-0.95498 z m 20.69952,12.41475 h -5.94072 l -0.70693,1.6371 q -0.34727,0.81856 -0.34727,1.35186 0,0.70693 0.57051,1.0418 0.33486,0.19843 1.64951,0.29765 v 0.45889 h -5.59346 v -0.45889 q 0.90537,-0.13642 1.48828,-0.74414 0.58291,-0.62011 1.43868,-2.54248 l 6.01513,-13.41933 h 0.23565 l 6.06474,13.7914 q 0.86817,1.95957 1.42627,2.46807 0.42168,0.38447 1.19063,0.44648 v 0.45889 h -8.13594 v -0.45889 h 0.33486 q 0.97979,0 1.37666,-0.27285 0.27286,-0.19844 0.27286,-0.57051 0,-0.22324 -0.0744,-0.45888 -0.0248,-0.11162 -0.37207,-0.93018 z m -0.42168,-0.91778 -2.50527,-5.79189 -2.57969,5.79189 z m 22.46064,-11.1125 8.29717,10.43037 v -7.23056 q 0,-1.51309 -0.43408,-2.04639 -0.59531,-0.71934 -1.99678,-0.69453 v -0.45889 h 5.55625 v 0.45889 q -1.0666,0.13642 -1.43867,0.35967 -0.35967,0.21084 -0.57051,0.70693 -0.19843,0.48369 -0.19843,1.67432 v 14.00224 h -0.42168 l -11.37295,-14.00224 v 10.69082 q 0,1.45107 0.65732,1.95957 0.66973,0.50849 1.52549,0.50849 h 0.39687 v 0.45889 h -5.96552 v -0.45889 q 1.38906,-0.0124 1.93476,-0.5705 0.54571,-0.55811 0.54571,-1.89756 v -11.86905 l -0.35967,-0.44648 q -0.5333,-0.66973 -0.94258,-0.88057 -0.40928,-0.21084 -1.17822,-0.23564 v -0.45889 z m 35.9792,0 v 4.55166 h -0.44648 q -0.39688,-1.5751 -0.88057,-2.25722 -0.48369,-0.69454 -1.32705,-1.10381 -0.47129,-0.22325 -1.64951,-0.22325 h -1.25264 v 12.97286 q 0,1.28984 0.13643,1.6123 0.14882,0.32246 0.5581,0.57051 0.42168,0.23564 1.14102,0.23564 h 0.5581 v 0.45889 h -8.80566 v -0.45889 h 0.5581 q 0.73174,0 1.17823,-0.26045 0.32246,-0.17363 0.50849,-0.59531 0.13643,-0.29765 0.13643,-1.56269 v -12.97286 h -1.21543 q -1.69912,0 -2.46807,0.71934 -1.079,1.00459 -1.36426,2.86494 h -0.47128 v -4.55166 z m 18.20662,-0.23564 q 4.01836,-0.14883 6.52364,2.34404 2.51767,2.49287 2.51767,6.23838 0,3.1998 -1.87275,5.63066 -2.48047,3.22461 -7.00733,3.22461 -4.53925,0 -7.01972,-3.07578 -1.95957,-2.43086 -1.95957,-5.76709 0,-3.74551 2.54248,-6.23838 2.55488,-2.50527 6.27558,-2.35644 z m 0.14883,0.79375 q -2.30683,0 -3.50986,2.35644 -0.97979,1.93477 -0.97979,5.55625 0,4.30362 1.51309,6.3624 1.0542,1.43868 2.95176,1.43868 1.27744,0 2.1332,-0.62012 1.09141,-0.79375 1.69912,-2.53008 0.60772,-1.74873 0.60772,-4.55166 0,-3.33623 -0.62012,-4.98574 -0.62012,-1.66191 -1.5875,-2.34404 -0.95498,-0.68213 -2.20762,-0.68213 z m 29.66643,-0.94258 0.13643,5.60586 h -0.5085 q -0.35967,-2.1084 -1.77353,-3.38584 -1.40147,-1.28984 -3.03858,-1.28984 -1.26504,0 -2.00918,0.68212 -0.73174,0.66973 -0.73174,1.5503 0,0.5581 0.26045,0.99218 0.35967,0.58291 1.15342,1.15342 0.58291,0.40928 2.69131,1.45108 2.95176,1.45107 3.98115,2.74091 1.01699,1.28985 1.01699,2.95176 0,2.1084 -1.64951,3.63389 -1.63711,1.51308 -4.16718,1.51308 -0.79375,0 -1.50069,-0.16123 -0.70693,-0.16123 -1.77353,-0.60771 -0.59532,-0.24805 -0.97979,-0.24805 -0.32246,0 -0.68213,0.24805 -0.35967,0.24805 -0.58291,0.75654 h -0.45888 v -6.35 h 0.45888 q 0.54571,2.67891 2.096,4.09278 1.56269,1.40146 3.36103,1.40146 1.38907,0 2.20762,-0.75654 0.83096,-0.75655 0.83096,-1.76113 0,-0.59532 -0.32246,-1.15342 -0.31006,-0.55811 -0.95498,-1.0542 -0.64493,-0.5085 -2.28204,-1.31465 -2.29443,-1.12861 -3.29902,-1.92236 -1.00459,-0.79375 -1.55029,-1.77354 -0.5333,-0.97978 -0.5333,-2.15801 0,-2.00918 1.47588,-3.42304 1.47588,-1.41387 3.7207,-1.41387 0.81855,0 1.5875,0.19844 0.58291,0.14882 1.41387,0.5581 0.84336,0.39688 1.17822,0.39688 0.32246,0 0.5085,-0.19844 0.18603,-0.19844 0.34726,-0.95498 z"
       id="text3"
       transform="translate(-1.5190648,-0.75953241)"
       aria-label="BETÂNIA SANTOS" /><path
       d="m 133.5553,338.52754 h -2.89388 l -0.50712,1.1796 q -0.18741,0.43546 -0.18741,0.65044 0,0.17087 0.15985,0.30317 0.16537,0.12677 0.70556,0.16536 v 0.20395 h -2.35369 v -0.20395 q 0.46853,-0.0827 0.60633,-0.21497 0.28112,-0.26459 0.62288,-1.07488 l 2.6293,-6.15156 h 0.19292 l 2.60174,6.21771 q 0.31419,0.74965 0.56775,0.97565 0.25907,0.22049 0.71658,0.24805 v 0.20395 h -2.949 v -0.20395 q 0.44648,-0.0221 0.60082,-0.14883 0.15986,-0.12678 0.15986,-0.30868 0,-0.24253 -0.22049,-0.76619 z m -0.15434,-0.4079 -1.26779,-3.02066 -1.30087,3.02066 z m 16.25535,-4.73494 v 2.5852 h -0.20395 q -0.0992,-0.74414 -0.35829,-1.18512 -0.25356,-0.44097 -0.72761,-0.70004 -0.47404,-0.25907 -0.98116,-0.25907 -0.57326,0 -0.94809,0.35278 -0.37483,0.34726 -0.37483,0.79375 0,0.34175 0.23702,0.62287 0.34176,0.41341 1.62609,1.10243 1.04731,0.56224 1.42765,0.86541 0.38585,0.29766 0.5898,0.70556 0.20946,0.4079 0.20946,0.85438 0,0.84888 -0.66146,1.46624 -0.65594,0.61185 -1.69223,0.61185 -0.32522,0 -0.61185,-0.0496 -0.17087,-0.0276 -0.71107,-0.19844 -0.53468,-0.17639 -0.67799,-0.17639 -0.13781,0 -0.22049,0.0827 -0.0772,0.0827 -0.11575,0.34176 h -0.20395 v -2.56316 h 0.20395 q 0.14331,0.80478 0.38585,1.20717 0.24253,0.39687 0.73863,0.66145 0.5016,0.26459 1.09692,0.26459 0.68902,0 1.08589,-0.3638 0.40239,-0.36381 0.40239,-0.8599 0,-0.27561 -0.15434,-0.55673 -0.14883,-0.28112 -0.46853,-0.52365 -0.21498,-0.16537 -1.17409,-0.70005 -0.95912,-0.54019 -1.36702,-0.85989 -0.40239,-0.31971 -0.61185,-0.70556 -0.20946,-0.38585 -0.20946,-0.84887 0,-0.80478 0.61736,-1.38356 0.61736,-0.58428 1.57097,-0.58428 0.59531,0 1.26228,0.29214 0.30868,0.1378 0.43546,0.1378 0.14332,0 0.23151,-0.0827 0.0937,-0.0882 0.14883,-0.34726 z m 14.21585,0 v 2.5852 h -0.20395 q -0.0992,-0.74414 -0.35829,-1.18512 -0.25356,-0.44097 -0.72761,-0.70004 -0.47404,-0.25907 -0.98116,-0.25907 -0.57327,0 -0.94809,0.35278 -0.37483,0.34726 -0.37483,0.79375 0,0.34175 0.23702,0.62287 0.34176,0.41341 1.62609,1.10243 1.04731,0.56224 1.42765,0.86541 0.38585,0.29766 0.5898,0.70556 0.20946,0.4079 0.20946,0.85438 0,0.84888 -0.66146,1.46624 -0.65594,0.61185 -1.69223,0.61185 -0.32522,0 -0.61185,-0.0496 -0.17088,-0.0276 -0.71107,-0.19844 -0.53468,-0.17639 -0.67799,-0.17639 -0.13781,0 -0.22049,0.0827 -0.0772,0.0827 -0.11575,0.34176 h -0.20395 v -2.56316 h 0.20395 q 0.14331,0.80478 0.38585,1.20717 0.24253,0.39687 0.73863,0.66145 0.5016,0.26459 1.09692,0.26459 0.68902,0 1.08589,-0.3638 0.40239,-0.36381 0.40239,-0.8599 0,-0.27561 -0.15434,-0.55673 -0.14883,-0.28112 -0.46854,-0.52365 -0.21497,-0.16537 -1.17409,-0.70005 -0.95911,-0.54019 -1.36701,-0.85989 -0.40239,-0.31971 -0.61185,-0.70556 -0.20946,-0.38585 -0.20946,-0.84887 0,-0.80478 0.61736,-1.38356 0.61736,-0.58428 1.57096,-0.58428 0.59532,0 1.26229,0.29214 0.30868,0.1378 0.43546,0.1378 0.14332,0 0.23151,-0.0827 0.0937,-0.0882 0.14883,-0.34726 z m 11.39913,0.57877 v 2.95452 h 1.64263 q 0.63941,0 0.85438,-0.19293 0.28663,-0.25356 0.31971,-0.89297 h 0.20395 v 2.60174 h -0.20395 q -0.0772,-0.5457 -0.15434,-0.70004 -0.0992,-0.19293 -0.32522,-0.30317 -0.226,-0.11024 -0.69453,-0.11024 h -1.64263 v 2.46393 q 0,0.4961 0.0441,0.60634 0.0441,0.10473 0.15434,0.17088 0.11024,0.0606 0.41893,0.0606 h 1.26779 q 0.6339,0 0.92053,-0.0882 0.28663,-0.0882 0.55122,-0.34727 0.34175,-0.34175 0.70004,-1.03077 h 0.22049 l -0.64492,1.87413 h -5.76021 v -0.20395 h 0.26458 q 0.26459,0 0.50161,-0.12678 0.17639,-0.0882 0.23702,-0.26458 0.0662,-0.17639 0.0662,-0.7221 v -4.85621 q 0,-0.71107 -0.14332,-0.87643 -0.19843,-0.22049 -0.66146,-0.22049 h -0.26458 v -0.20395 h 5.76021 l 0.0827,1.63711 h -0.21498 q -0.11575,-0.5898 -0.25907,-0.81028 -0.1378,-0.22049 -0.41341,-0.33624 -0.22049,-0.0827 -0.77721,-0.0827 z m 17.64993,-0.57877 v 2.5852 h -0.20395 q -0.0992,-0.74414 -0.35829,-1.18512 -0.25356,-0.44097 -0.72761,-0.70004 -0.47404,-0.25907 -0.98116,-0.25907 -0.57327,0 -0.94809,0.35278 -0.37483,0.34726 -0.37483,0.79375 0,0.34175 0.23702,0.62287 0.34176,0.41341 1.62609,1.10243 1.04731,0.56224 1.42765,0.86541 0.38585,0.29766 0.5898,0.70556 0.20946,0.4079 0.20946,0.85438 0,0.84888 -0.66146,1.46624 -0.65594,0.61185 -1.69223,0.61185 -0.32522,0 -0.61185,-0.0496 -0.17088,-0.0276 -0.71107,-0.19844 -0.53468,-0.17639 -0.67799,-0.17639 -0.13781,0 -0.22049,0.0827 -0.0772,0.0827 -0.11576,0.34176 h -0.20395 v -2.56316 h 0.20395 q 0.14332,0.80478 0.38586,1.20717 0.24253,0.39687 0.73862,0.66145 0.50161,0.26459 1.09692,0.26459 0.68902,0 1.0859,-0.3638 0.40239,-0.36381 0.40239,-0.8599 0,-0.27561 -0.15434,-0.55673 -0.14883,-0.28112 -0.46854,-0.52365 -0.21497,-0.16537 -1.17409,-0.70005 -0.95911,-0.54019 -1.36701,-0.85989 -0.40239,-0.31971 -0.61185,-0.70556 -0.20946,-0.38585 -0.20946,-0.84887 0,-0.80478 0.61736,-1.38356 0.61736,-0.58428 1.57096,-0.58428 0.59532,0 1.26229,0.29214 0.30868,0.1378 0.43546,0.1378 0.14331,0 0.23151,-0.0827 0.0937,-0.0882 0.14883,-0.34726 z m 14.21585,0 v 2.5852 h -0.20395 q -0.0992,-0.74414 -0.35829,-1.18512 -0.25356,-0.44097 -0.72761,-0.70004 -0.47404,-0.25907 -0.98116,-0.25907 -0.57327,0 -0.94809,0.35278 -0.37483,0.34726 -0.37483,0.79375 0,0.34175 0.23702,0.62287 0.34176,0.41341 1.62609,1.10243 1.04731,0.56224 1.42765,0.86541 0.38585,0.29766 0.5898,0.70556 0.20946,0.4079 0.20946,0.85438 0,0.84888 -0.66146,1.46624 -0.65594,0.61185 -1.69223,0.61185 -0.32522,0 -0.61185,-0.0496 -0.17088,-0.0276 -0.71107,-0.19844 -0.53468,-0.17639 -0.67799,-0.17639 -0.13781,0 -0.22049,0.0827 -0.0772,0.0827 -0.11575,0.34176 h -0.20395 v -2.56316 h 0.20395 q 0.14331,0.80478 0.38585,1.20717 0.24253,0.39687 0.73863,0.66145 0.5016,0.26459 1.09692,0.26459 0.68901,0 1.08589,-0.3638 0.40239,-0.36381 0.40239,-0.8599 0,-0.27561 -0.15434,-0.55673 -0.14883,-0.28112 -0.46854,-0.52365 -0.21497,-0.16537 -1.17409,-0.70005 -0.95911,-0.54019 -1.36701,-0.85989 -0.40239,-0.31971 -0.61185,-0.70556 -0.20946,-0.38585 -0.20946,-0.84887 0,-0.80478 0.61736,-1.38356 0.61736,-0.58428 1.57096,-0.58428 0.59532,0 1.26229,0.29214 0.30868,0.1378 0.43546,0.1378 0.14332,0 0.23151,-0.0827 0.0937,-0.0882 0.14883,-0.34726 z m 13.16853,0 q 1.45521,0 2.51906,1.10794 1.06936,1.10243 1.06936,2.75608 0,1.70326 -1.07487,2.82774 -1.07488,1.12448 -2.60174,1.12448 -1.54341,0 -2.59623,-1.09692 -1.04731,-1.09692 -1.04731,-2.83876 0,-1.78043 1.21267,-2.90491 1.05283,-0.97565 2.51906,-0.97565 z m -0.10473,0.40238 q -1.00321,0 -1.60955,0.74415 -0.75517,0.92604 -0.75517,2.71198 0,1.83003 0.78273,2.81671 0.60083,0.74965 1.5875,0.74965 1.05282,0 1.73633,-0.82131 0.68902,-0.82131 0.68902,-2.59071 0,-1.91823 -0.75516,-2.86081 -0.60634,-0.74966 -1.6757,-0.74966 z m 19.69494,7.24298 h -1.9954 l -2.53008,-3.49471 q -0.28112,0.011 -0.45751,0.011 -0.0717,0 -0.15434,0 -0.0827,-0.006 -0.17088,-0.011 v 2.17179 q 0,0.70556 0.15434,0.87643 0.20946,0.24254 0.62839,0.24254 h 0.29214 v 0.20395 h -3.20256 v -0.20395 h 0.28112 q 0.47404,0 0.67799,-0.30868 0.11576,-0.17088 0.11576,-0.81029 v -4.82865 q 0,-0.70556 -0.15434,-0.87643 -0.21498,-0.24254 -0.63941,-0.24254 h -0.28112 v -0.20395 h 2.723 q 1.19063,0 1.75287,0.17639 0.56775,0.17088 0.95912,0.63941 0.39687,0.46302 0.39687,1.10795 0,0.68902 -0.45199,1.19613 -0.44649,0.50712 -1.38907,0.71659 l 1.54341,2.14422 q 0.52916,0.73863 0.9095,0.98117 0.38034,0.24253 0.99219,0.30868 z m -5.30821,-3.84197 q 0.10473,0 0.1819,0.006 0.0772,0 0.12678,0 1.06936,0 1.60955,-0.46302 0.54571,-0.46303 0.54571,-1.17961 0,-0.70004 -0.44098,-1.1355 -0.43546,-0.44097 -1.15755,-0.44097 -0.3197,0 -0.86541,0.10473 z m 16.63017,3.63802 v 0.20395 h -3.20256 v -0.20395 h 0.26458 q 0.46302,0 0.67248,-0.2701 0.13229,-0.17638 0.13229,-0.84887 v -4.82865 q 0,-0.56775 -0.0717,-0.74965 -0.0551,-0.13781 -0.226,-0.23703 -0.24254,-0.13229 -0.50712,-0.13229 h -0.26458 v -0.20395 h 3.20256 v 0.20395 h -0.2701 q -0.45751,0 -0.66697,0.2701 -0.1378,0.17639 -0.1378,0.84887 v 4.82865 q 0,0.56775 0.0717,0.74966 0.0551,0.1378 0.23151,0.23702 0.23702,0.13229 0.5016,0.13229 z m 13.378,-2.29857 h -2.89388 l -0.50712,1.1796 q -0.18742,0.43546 -0.18742,0.65044 0,0.17087 0.15986,0.30317 0.16536,0.12677 0.70555,0.16536 v 0.20395 h -2.35369 v -0.20395 q 0.46854,-0.0827 0.60634,-0.21497 0.28112,-0.26459 0.62287,-1.07488 l 2.6293,-6.15156 h 0.19293 l 2.60174,6.21771 q 0.31419,0.74965 0.56775,0.97565 0.25907,0.22049 0.71658,0.24805 v 0.20395 h -2.949 v -0.20395 q 0.44648,-0.0221 0.60082,-0.14883 0.15985,-0.12678 0.15985,-0.30868 0,-0.24253 -0.22048,-0.76619 z m -0.15434,-0.4079 -1.2678,-3.02066 -1.30087,3.02066 z m 22.34077,-4.36012 v -0.20395 h 3.20256 v 0.20395 h -0.2701 q -0.45751,0 -0.66697,0.2701 -0.13229,0.17639 -0.13229,0.84887 v 3.65456 q 0,0.84336 -0.18741,1.36702 -0.1819,0.52365 -0.6339,0.91502 -0.452,0.38585 -1.09141,0.38585 -0.51814,0 -0.8158,-0.25356 -0.29765,-0.25907 -0.29765,-0.5898 0,-0.2701 0.1378,-0.4079 0.1819,-0.17088 0.42444,-0.17088 0.17638,0 0.31419,0.11576 0.14331,0.11575 0.35829,0.61736 0.12678,0.29765 0.32522,0.29765 0.14882,0 0.2756,-0.1819 0.1323,-0.1819 0.1323,-0.64492 v -5.10426 q 0,-0.56775 -0.0717,-0.74965 -0.0551,-0.13781 -0.23151,-0.23703 -0.23703,-0.13229 -0.50161,-0.13229 z m 16.59158,0 v -0.20395 h 2.64584 v 0.20395 h -0.28112 q -0.44097,0 -0.678,0.36932 -0.11575,0.17087 -0.11575,0.79375 v 3.03169 q 0,1.12448 -0.226,1.74735 -0.22049,0.61736 -0.87643,1.06385 -0.65044,0.44097 -1.77492,0.44097 -1.2237,0 -1.8576,-0.42444 -0.6339,-0.42443 -0.89848,-1.14101 -0.17639,-0.49059 -0.17639,-1.84106 v -2.92145 q 0,-0.68902 -0.19292,-0.90399 -0.18742,-0.21498 -0.61185,-0.21498 h -0.28112 v -0.20395 h 3.23012 v 0.20395 h -0.28663 q -0.46302,0 -0.66146,0.29215 -0.1378,0.19843 -0.1378,0.82682 v 3.25769 q 0,0.43546 0.0772,0.9977 0.0827,0.56224 0.29214,0.87643 0.20946,0.31419 0.60083,0.51814 0.39687,0.20395 0.97014,0.20395 0.73311,0 1.31189,-0.3197 0.57878,-0.31971 0.78824,-0.8158 0.21497,-0.50161 0.21497,-1.69223 v -3.02618 q 0,-0.70004 -0.15434,-0.87643 -0.21497,-0.24254 -0.63941,-0.24254 z m 18.33343,7.27054 h -1.9954 l -2.53008,-3.49471 q -0.28112,0.011 -0.45751,0.011 -0.0717,0 -0.15434,0 -0.0827,-0.006 -0.17088,-0.011 v 2.17179 q 0,0.70556 0.15434,0.87643 0.20947,0.24254 0.62839,0.24254 h 0.29214 v 0.20395 h -3.20256 v -0.20395 h 0.28112 q 0.47405,0 0.678,-0.30868 0.11575,-0.17088 0.11575,-0.81029 v -4.82865 q 0,-0.70556 -0.15434,-0.87643 -0.21497,-0.24254 -0.63941,-0.24254 h -0.28112 v -0.20395 h 2.72301 q 1.19062,0 1.75286,0.17639 0.56775,0.17088 0.95912,0.63941 0.39687,0.46302 0.39687,1.10795 0,0.68902 -0.45199,1.19613 -0.44649,0.50712 -1.38907,0.71659 l 1.54341,2.14422 q 0.52916,0.73863 0.9095,0.98117 0.38034,0.24253 0.99219,0.30868 z m -5.30821,-3.84197 q 0.10473,0 0.1819,0.006 0.0772,0 0.12678,0 1.06936,0 1.60955,-0.46302 0.54571,-0.46303 0.54571,-1.17961 0,-0.70004 -0.44097,-1.1355 -0.43547,-0.44097 -1.15756,-0.44097 -0.3197,0 -0.86541,0.10473 z m 16.63017,3.63802 v 0.20395 h -3.20256 v -0.20395 h 0.26458 q 0.46302,0 0.67248,-0.2701 0.1323,-0.17638 0.1323,-0.84887 v -4.82865 q 0,-0.56775 -0.0717,-0.74965 -0.0551,-0.13781 -0.226,-0.23703 -0.24254,-0.13229 -0.50712,-0.13229 h -0.26458 v -0.20395 h 3.20256 v 0.20395 h -0.2701 q -0.4575,0 -0.66697,0.2701 -0.1378,0.17639 -0.1378,0.84887 v 4.82865 q 0,0.56775 0.0717,0.74966 0.0551,0.1378 0.23151,0.23702 0.23702,0.13229 0.5016,0.13229 z m -0.36931,-9.7014 -1.62609,1.9017 h -0.18741 l 0.57877,-1.9017 z m 8.77534,9.90535 v -0.20395 h 0.28112 q 0.47405,0 0.67249,-0.30317 0.12127,-0.1819 0.12127,-0.8158 v -4.82865 q 0,-0.70004 -0.15434,-0.87643 -0.21498,-0.24254 -0.63942,-0.24254 h -0.28112 v -0.20395 h 3.04272 q 1.67569,0 2.54661,0.38034 0.87644,0.38034 1.4056,1.2678 0.53468,0.88746 0.53468,2.05052 0,1.55994 -0.94809,2.60725 -1.06384,1.16858 -3.24115,1.16858 z m 2.13321,-0.54019 q 0.70004,0.15434 1.17409,0.15434 1.27882,0 2.12218,-0.89848 0.84336,-0.89848 0.84336,-2.43638 0,-1.54891 -0.84336,-2.44188 -0.84336,-0.89297 -2.16628,-0.89297 -0.49609,0 -1.12999,0.15985 z m 17.24755,0.33624 v 0.20395 h -3.20256 v -0.20395 h 0.26458 q 0.46302,0 0.67248,-0.2701 0.13229,-0.17638 0.13229,-0.84887 v -4.82865 q 0,-0.56775 -0.0716,-0.74965 -0.0551,-0.13781 -0.226,-0.23703 -0.24254,-0.13229 -0.50712,-0.13229 h -0.26458 v -0.20395 h 3.20256 v 0.20395 h -0.2701 q -0.45751,0 -0.66697,0.2701 -0.1378,0.17639 -0.1378,0.84887 v 4.82865 q 0,0.56775 0.0717,0.74966 0.0551,0.1378 0.23151,0.23702 0.23702,0.13229 0.5016,0.13229 z m 15.00958,-7.44141 0.17088,2.5411 h -0.17088 q -0.34175,-1.14102 -0.97565,-1.64262 -0.6339,-0.50161 -1.52135,-0.50161 -0.74415,0 -1.34497,0.38034 -0.60083,0.37483 -0.94809,1.20165 -0.34176,0.82682 -0.34176,2.05604 0,1.01423 0.32522,1.75837 0.32522,0.74415 0.97565,1.14102 0.65595,0.39688 1.4938,0.39688 0.7276,0 1.28433,-0.30868 0.55673,-0.3142 1.2237,-1.24024 l 0.17088,0.11024 q -0.56224,0.9977 -1.3119,1.46073 -0.74965,0.46302 -1.78042,0.46302 -1.8576,0 -2.87735,-1.37804 -0.76068,-1.02526 -0.76068,-2.41433 0,-1.11897 0.50161,-2.05603 0.50161,-0.93707 1.37804,-1.4497 0.88194,-0.51814 1.92374,-0.51814 0.81029,0 1.59853,0.39687 0.23151,0.12127 0.33073,0.12127 0.14883,0 0.25907,-0.10473 0.14331,-0.14883 0.20395,-0.41341 z m 13.83551,5.14284 h -2.89389 l -0.50711,1.1796 q -0.18742,0.43546 -0.18742,0.65044 0,0.17087 0.15985,0.30317 0.16537,0.12677 0.70556,0.16536 v 0.20395 h -2.35369 v -0.20395 q 0.46853,-0.0827 0.60634,-0.21497 0.28112,-0.26459 0.62287,-1.07488 l 2.6293,-6.15156 h 0.19293 l 2.60173,6.21771 q 0.3142,0.74965 0.56776,0.97565 0.25907,0.22049 0.71658,0.24805 v 0.20395 h -2.94901 v -0.20395 q 0.44649,-0.0221 0.60083,-0.14883 0.15985,-0.12678 0.15985,-0.30868 0,-0.24253 -0.22049,-0.76619 z m -0.15434,-0.4079 -1.2678,-3.02066 -1.30087,3.02066 z"
       id="text3-8"
       style="font-size:11.2889px;line-height:21.1784px;font-family:'Times New Roman';-inkscape-font-specification:'Times New Roman, ';text-align:center;letter-spacing:7.9375px;word-spacing:0px;text-anchor:middle;white-space:pre;inline-size:333.702;fill:#e6b44a;stroke-width:8.22854"
       transform="translate(1.0548379,32.987529)"
       aria-label="ASSESSORIA JURÍDICA" /></g><g
     inkscape:label="Camada 1 copiar"
     inkscape:groupmode="layer"
     id="g80"><g
       id="g79"
       transform="matrix(0.43563549,0,0,0.43510446,231.91059,226.14178)"
       style="display:inline;fill:#e6b44a;fill-opacity:1;filter:url(#filter65)"><path
         id="path79"
         d="m 49.938203,11.171715 c -3.5586,-0.07031 -5.40718,4.503905 -2.84478,6.906205 -1.3008,-0.125 -2.49171,0.854973 -2.48391,2.187003 0.03125,0.80859 -0.159444,2.110213 0.344466,2.782013 -6.0156,0.46875 -8.332352,2.270061 -13.312352,3.813061 -3.0781,0.95312 -6.595195,0.95256 -9.110795,0.74944 -1.7188,-3.9531 -7.811797,-2.668421 -7.796197,1.671479 0,1.4219 0.734766,2.671949 1.844186,3.390649 L 8.1405567,57.686971 H 6.2495044 c -0.54688,-0.0078 -0.9514233,0.606605 -0.7170533,1.110535 l 1.8113798,4.062874 c 0.82812,1.8594 2.8599911,3.06135 5.1880911,3.06135 h 12.592956 c 2.3125,0 4.359992,-1.20195 5.188092,-3.06135 l 1.797319,-4.062874 c 0.25,-0.50781 -0.156123,-1.118335 -0.702993,-1.110535 H 29.49984 l -2.570612,-7.62158 c -0.08569,-0.193196 -0.156369,-0.39789 -0.208555,-0.615449 L 21.499775,33.968324 c 8.655857,1.132141 16.26822,-3.703223 24.330603,-2.093891 0.148508,0.0035 0.296756,0.0131 0.445229,0.01817 0.0055,1.86e-4 0.01094,-1.89e-4 0.0164,0 0.06303,8.8e-5 0.126778,4.4e-5 0.189808,0 0.06938,0 0.138723,-8.8e-5 0.208555,0 0.08752,1.75e-4 0.175387,-2.64e-4 0.262451,0 0.08072,3.51e-4 0.160646,0.0029 0.241361,0.0045 0.112004,0.0044 0.225433,0.0026 0.337437,0.01135 0.109284,0.0044 0.216437,0.01392 0.32572,0.02271 0.101575,0.0044 0.20351,0.01846 0.304631,0.02725 0.102028,0.0044 0.204945,0.0026 0.306974,0.01135 0.0984,0.0044 0.196856,0.0063 0.295257,0.0091 0.109283,4.4e-5 0.21878,-1.32e-4 0.328063,0 0.118353,-4.4e-5 0.235488,-8.8e-5 0.35384,0 0.126969,1.76e-4 0.254992,0.0017 0.38196,0.0023 0.128329,2.2e-4 0.255975,0.001 0.384303,0.0045 0.118806,0.0044 0.237378,0.01377 0.356184,0.01817 0.128328,0.0052 0.256427,0.0024 0.384303,0.0023 0.102481,0 0.204945,-8.8e-5 0.306974,0 0.101574,4.4e-5 0.203055,8.8e-5 0.30463,0 0.09024,0 0.179696,4.4e-5 0.269481,0 h 0.260107 c 0.08117,-4.4e-5 0.162536,0 0.243705,0 0.08162,-4.4e-5 0.162082,4.4e-5 0.243704,0 0.08434,-4.4e-5 0.168735,3.08e-4 0.253078,0 0.07482,-2.64e-4 0.150137,-10e-7 0.224958,-0.0023 0.04353,0 0.08588,-2.31e-4 0.131225,-0.0091 0.04489,-0.0088 0.08354,-0.02315 0.128882,-0.03634 0.0594,-0.01626 0.120125,-0.03224 0.180435,-0.04542 0.06167,-0.01178 0.123452,-0.02228 0.185122,-0.0045 0.01904,0.0044 0.04248,0.0095 0.05155,0.02271 0.0017,0.0022 0.0031,0.0046 0.0047,0.0068 8.157594,-1.848045 16.07046,3.178733 24.759429,2.030302 l -8.000065,23.718647 h -1.905112 c -0.55078,-0.0078 -0.949094,0.606605 -0.702994,1.110535 l 1.794977,4.062874 c 0.82812,1.8594 2.875591,3.06135 5.188091,3.06135 H 87.47103 c 2.3281,0 4.357648,-1.20195 5.185748,-3.06135 l 1.813723,-4.062874 c 0.10938,-0.25 0.07736,-0.530691 -0.06327,-0.749441 h -0.0023 c -0.24219,-0.57812 -1.751837,-0.302494 -2.544837,-0.361094 L 83.42178,32.687462 c 3.332,-2.1016 1.797321,-7.524318 -2.249579,-7.485318 -1.625,0 -3.064175,0.969843 -3.704775,2.407293 -3.7539,0.53516 -9.460117,-0.426074 -13.202217,-2.234694 -2.7188,-1.0625 -5.139583,-2.015504 -9.342783,-2.343704 0.48438,-0.66797 0.292914,-1.992716 0.328064,-2.766116 0.0078,-1.3281 -1.18311,-2.315903 -2.48391,-2.187003 2.5586,-2.375 0.714563,-6.992205 -2.828377,-6.906205 z m 31.936991,18.359014 c 0.23438,0.09375 0.421775,0.266974 0.562395,0.470104 -0.12109,-0.19922 -0.351455,-0.352914 -0.562395,-0.470104 z M 79.625615,40.3908 V 57.686971 H 73.7978 Z m -62.360204,0.04542 v 17.250751 h -5.811412 z m 3.125978,0 5.811412,17.250751 h -5.811412 z m 62.357861,0.04769 5.797352,17.203059 H 82.74925 Z"
         style="display:inline;fill:#e6b44a;fill-opacity:1" /></g></g></svg>
